# xmcd CD database file
#
# Track frame offsets:
#	150
#	15022
#	25130
#	36352
#	54620
#	66850
#	82790
#	96590
#	110745
#	125395
#
# Disc length: 1828 seconds
#
# Revision: 0
# Processed by: cddbd v1.5.1PL2 Copyright (c) Steve Scherf et al.
# Submitted via: CDex 1.51
#
DISCID=7a07220a
DTITLE=Various Artist - WORLD MUSIC SERIES 7 YIDDISH CLASSICS
DYEAR=1900
DGENRE=Other
TTITLE0=Hava Nagila
TTITLE1=Hevenu Shalom Aleichem
TTITLE2=Izena
TTITLE3=Kazatzke
TTITLE4=Mein Shtele Belz
TTITLE5=Yesh Lanotayish
TTITLE6=Dayenu
TTITLE7=Shain Vi Di L'Vone
TTITLE8=Ushavtem Mayem
TTITLE9=Dradel
EXTD=
EXTT0=
EXTT1=
EXTT2=
EXTT3=
EXTT4=
EXTT5=
EXTT6=
EXTT7=
EXTT8=
EXTT9=
PLAYORDER=
